
<svg 
  version="1.0" 
  xmlns="http://www.w3.org/2000/svg"
  width="291.000000pt" 
  height="247.000000pt" 
  viewBox="0 0 291.000000 247.000000"
  preserveAspectRatio="xMidYMid meet">

  <g 
    transform="translate(0.000000,247.000000) scale(0.100000,-0.100000)"
    fill="#000000" 
    stroke="none">
      <path d="M270 1885 l0 -316 40 37 c22 20 56 48 75 61 l35 24 0 189 0 190 998
      -2 997 -3 3 -892 2 -893 75 0 75 0 0 960 0 960 -1150 0 -1150 0 0 -315z"/>
      <path d="M460 1970 l0 -60 960 0 960 0 0 60 0 60 -960 0 -960 0 0 -60z"/>
      <path d="M460 1809 l0 -62 93 8 c50 4 130 7 177 6 47 -1 437 -4 868 -6 l782
      -6 0 61 0 60 -960 0 -960 0 0 -61z"/>
      <path d="M640 1719 c-265 -39 -477 -271 -497 -545 -20 -281 179 -549 457 -615
      76 -18 214 -15 286 6 164 47 304 163 373 308 47 98 61 160 61 269 0 289 -209
      530 -501 577 -72 12 -100 12 -179 0z m248 -130 c235 -81 369 -333 307 -574
      -36 -137 -131 -250 -262 -313 -77 -36 -80 -37 -198 -37 -101 0 -129 4 -177 23
      -125 50 -227 156 -279 290 -32 82 -32 222 0 315 69 204 275 338 490 320 35 -2
      88 -13 119 -24z"/>
      <path d="M1512 943 l3 -208 205 0 205 0 0 205 0 205 -62 3 -63 3 0 -61 c0 -69
      -11 -80 -57 -57 -24 13 -31 13 -48 1 -10 -8 -27 -14 -37 -14 -16 0 -18 9 -18
      65 l0 65 -65 0 -65 0 2 -207z"/>
      <path d="M1680 1117 c0 -31 2 -32 40 -33 39 -1 40 -1 40 32 0 33 -1 34 -40 34
      -39 0 -40 -1 -40 -33z"/>
      <path d="M1970 940 l0 -210 205 0 205 0 0 210 0 211 -62 -3 -63 -3 -3 -62 c-3
      -68 -16 -79 -57 -49 -17 12 -24 12 -48 -1 -46 -23 -57 -12 -57 57 l0 60 -60 0
      -60 0 0 -210z"/>
      <path d="M2137 1143 c-4 -3 -7 -19 -7 -33 0 -25 3 -27 40 -26 38 1 40 2 40 33
      0 31 -2 33 -33 33 -19 0 -37 -3 -40 -7z"/>
      <path d="M1173 686 l-72 -73 39 -38 40 -39 75 74 75 74 -37 38 c-20 21 -40 38
      -43 38 -3 -1 -37 -34 -77 -74z"/>
      <path d="M270 491 l0 -211 75 0 75 0 0 153 0 153 -32 19 c-18 10 -52 37 -75
      58 l-43 40 0 -212z"/>
      <path d="M1425 650 c21 -22 40 -40 42 -40 2 0 3 18 3 40 l0 40 -42 0 -42 0 39
      -40z"/>
      <path d="M1510 627 l0 -62 143 -143 143 -143 65 3 64 3 3 203 2 202 -65 0 -65
      0 0 -60 c0 -69 -13 -82 -53 -55 -23 15 -28 15 -57 0 -17 -9 -35 -13 -40 -10
      -6 3 -10 33 -10 66 l0 59 -65 0 -65 0 0 -63z"/>
      <path d="M1680 655 c0 -31 2 -35 18 -26 11 6 24 6 33 0 24 -15 29 -10 29 26 0
      34 -1 35 -40 35 -39 0 -40 -1 -40 -35z"/>
      <path d="M1970 485 l0 -205 205 0 205 0 0 205 0 205 -65 0 -65 0 0 -59 c0 -33
      -4 -63 -10 -66 -5 -3 -23 2 -39 11 -28 16 -31 16 -56 0 -42 -28 -55 -15 -55
      54 l0 60 -60 0 -60 0 0 -205z"/>
      <path d="M2130 655 c0 -36 5 -41 29 -26 9 6 22 6 33 0 16 -9 18 -5 18 26 0 34
      -1 35 -40 35 -39 0 -40 -1 -40 -35z"/>
      <path d="M1287 582 c-37 -37 -67 -72 -67 -78 0 -5 109 -118 243 -251 204 -204
      248 -242 279 -248 49 -9 89 11 110 56 32 65 21 81 -244 346 -134 134 -245 243
      -248 243 -3 0 -36 -30 -73 -68z"/>
      <path d="M1060 435 l0 -155 155 0 c85 0 155 3 155 8 0 9 -293 302 -303 302 -4
      0 -7 -70 -7 -155z"/>
      <path d="M140 185 l0 -55 690 0 c380 0 690 4 690 8 0 4 -22 29 -48 55 l-48 47
      -642 0 -642 0 0 -55z"/>
      <path d="M1864 209 c14 -17 29 -41 32 -55 l6 -24 399 0 399 0 0 55 0 55 -431
      0 -431 0 26 -31z"/>
  </g>
</svg>
